<mxfile host="www.draw.io" modified="2020-03-01T18:44:29.112Z" agent="Mozilla/5.0 (Macintosh; Intel Mac OS X 10.12; rv:73.0) Gecko/20100101 Firefox/73.0" etag="pSA-Yw1sYjkdi2WqGlm4" version="12.7.9" type="github">
  <diagram id="nZiL_g4HoVqe4ocX-0hI" name="Page-1">
    <mxGraphModel dx="1186" dy="775" grid="1" gridSize="10" guides="1" tooltips="1" connect="1" arrows="1" fold="1" page="1" pageScale="1" pageWidth="850" pageHeight="1100" math="0" shadow="0">
      <root>
        <mxCell id="0" />
        <mxCell id="1" parent="0" />
        <mxCell id="BmM361tWgZ_u9sHNip33-1" value="0" style="rounded=0;whiteSpace=wrap;html=1;" vertex="1" parent="1">
          <mxGeometry x="240" y="40" width="40" height="29" as="geometry" />
        </mxCell>
        <mxCell id="BmM361tWgZ_u9sHNip33-3" value="" style="rounded=0;whiteSpace=wrap;html=1;" vertex="1" parent="1">
          <mxGeometry x="280" y="40" width="40" height="29" as="geometry" />
        </mxCell>
        <mxCell id="BmM361tWgZ_u9sHNip33-5" value="" style="rounded=0;whiteSpace=wrap;html=1;" vertex="1" parent="1">
          <mxGeometry x="320" y="40" width="40" height="29" as="geometry" />
        </mxCell>
        <mxCell id="BmM361tWgZ_u9sHNip33-6" value="" style="rounded=0;whiteSpace=wrap;html=1;" vertex="1" parent="1">
          <mxGeometry x="360" y="40" width="40" height="29" as="geometry" />
        </mxCell>
        <mxCell id="BmM361tWgZ_u9sHNip33-7" value="" style="rounded=0;whiteSpace=wrap;html=1;" vertex="1" parent="1">
          <mxGeometry x="400" y="40" width="40" height="29" as="geometry" />
        </mxCell>
        <mxCell id="BmM361tWgZ_u9sHNip33-8" value="Iterazione 1" style="text;html=1;strokeColor=none;fillColor=none;align=center;verticalAlign=middle;whiteSpace=wrap;rounded=0;" vertex="1" parent="1">
          <mxGeometry x="140" y="50" width="80" height="9" as="geometry" />
        </mxCell>
        <mxCell id="BmM361tWgZ_u9sHNip33-9" value="0" style="text;html=1;strokeColor=none;fillColor=none;align=center;verticalAlign=middle;whiteSpace=wrap;rounded=0;" vertex="1" parent="1">
          <mxGeometry x="240" y="20" width="40" height="9" as="geometry" />
        </mxCell>
        <mxCell id="BmM361tWgZ_u9sHNip33-10" value="1" style="text;html=1;strokeColor=none;fillColor=none;align=center;verticalAlign=middle;whiteSpace=wrap;rounded=0;" vertex="1" parent="1">
          <mxGeometry x="280" y="20" width="40" height="9" as="geometry" />
        </mxCell>
        <mxCell id="BmM361tWgZ_u9sHNip33-13" value="2" style="text;html=1;strokeColor=none;fillColor=none;align=center;verticalAlign=middle;whiteSpace=wrap;rounded=0;" vertex="1" parent="1">
          <mxGeometry x="320" y="20" width="40" height="9" as="geometry" />
        </mxCell>
        <mxCell id="BmM361tWgZ_u9sHNip33-14" value="3" style="text;html=1;strokeColor=none;fillColor=none;align=center;verticalAlign=middle;whiteSpace=wrap;rounded=0;" vertex="1" parent="1">
          <mxGeometry x="360" y="20" width="40" height="9" as="geometry" />
        </mxCell>
        <mxCell id="BmM361tWgZ_u9sHNip33-15" value="4" style="text;html=1;strokeColor=none;fillColor=none;align=center;verticalAlign=middle;whiteSpace=wrap;rounded=0;" vertex="1" parent="1">
          <mxGeometry x="400" y="20" width="40" height="9" as="geometry" />
        </mxCell>
        <mxCell id="BmM361tWgZ_u9sHNip33-17" value="0" style="rounded=0;whiteSpace=wrap;html=1;" vertex="1" parent="1">
          <mxGeometry x="240" y="80" width="40" height="29" as="geometry" />
        </mxCell>
        <mxCell id="BmM361tWgZ_u9sHNip33-18" value="1" style="rounded=0;whiteSpace=wrap;html=1;" vertex="1" parent="1">
          <mxGeometry x="280" y="80" width="40" height="29" as="geometry" />
        </mxCell>
        <mxCell id="BmM361tWgZ_u9sHNip33-19" value="" style="rounded=0;whiteSpace=wrap;html=1;" vertex="1" parent="1">
          <mxGeometry x="320" y="80" width="40" height="29" as="geometry" />
        </mxCell>
        <mxCell id="BmM361tWgZ_u9sHNip33-20" value="" style="rounded=0;whiteSpace=wrap;html=1;" vertex="1" parent="1">
          <mxGeometry x="360" y="80" width="40" height="29" as="geometry" />
        </mxCell>
        <mxCell id="BmM361tWgZ_u9sHNip33-21" value="" style="rounded=0;whiteSpace=wrap;html=1;" vertex="1" parent="1">
          <mxGeometry x="400" y="80" width="40" height="29" as="geometry" />
        </mxCell>
        <mxCell id="BmM361tWgZ_u9sHNip33-22" value="Iterazione 2" style="text;html=1;strokeColor=none;fillColor=none;align=center;verticalAlign=middle;whiteSpace=wrap;rounded=0;" vertex="1" parent="1">
          <mxGeometry x="140" y="90" width="80" height="9" as="geometry" />
        </mxCell>
        <mxCell id="BmM361tWgZ_u9sHNip33-25" value="0" style="rounded=0;whiteSpace=wrap;html=1;" vertex="1" parent="1">
          <mxGeometry x="240" y="120" width="40" height="29" as="geometry" />
        </mxCell>
        <mxCell id="BmM361tWgZ_u9sHNip33-26" value="1" style="rounded=0;whiteSpace=wrap;html=1;" vertex="1" parent="1">
          <mxGeometry x="280" y="120" width="40" height="29" as="geometry" />
        </mxCell>
        <mxCell id="BmM361tWgZ_u9sHNip33-27" value="2" style="rounded=0;whiteSpace=wrap;html=1;" vertex="1" parent="1">
          <mxGeometry x="320" y="120" width="40" height="29" as="geometry" />
        </mxCell>
        <mxCell id="BmM361tWgZ_u9sHNip33-28" value="" style="rounded=0;whiteSpace=wrap;html=1;" vertex="1" parent="1">
          <mxGeometry x="360" y="120" width="40" height="29" as="geometry" />
        </mxCell>
        <mxCell id="BmM361tWgZ_u9sHNip33-29" value="" style="rounded=0;whiteSpace=wrap;html=1;" vertex="1" parent="1">
          <mxGeometry x="400" y="120" width="40" height="29" as="geometry" />
        </mxCell>
        <mxCell id="BmM361tWgZ_u9sHNip33-30" value="&lt;div&gt;Iterazione 3&lt;br&gt;&lt;/div&gt;" style="text;html=1;strokeColor=none;fillColor=none;align=center;verticalAlign=middle;whiteSpace=wrap;rounded=0;" vertex="1" parent="1">
          <mxGeometry x="140" y="130" width="80" height="9" as="geometry" />
        </mxCell>
        <mxCell id="BmM361tWgZ_u9sHNip33-31" value="0" style="rounded=0;whiteSpace=wrap;html=1;" vertex="1" parent="1">
          <mxGeometry x="240" y="160" width="40" height="29" as="geometry" />
        </mxCell>
        <mxCell id="BmM361tWgZ_u9sHNip33-32" value="1" style="rounded=0;whiteSpace=wrap;html=1;" vertex="1" parent="1">
          <mxGeometry x="280" y="160" width="40" height="29" as="geometry" />
        </mxCell>
        <mxCell id="BmM361tWgZ_u9sHNip33-33" value="2" style="rounded=0;whiteSpace=wrap;html=1;" vertex="1" parent="1">
          <mxGeometry x="320" y="160" width="40" height="29" as="geometry" />
        </mxCell>
        <mxCell id="BmM361tWgZ_u9sHNip33-34" value="3" style="rounded=0;whiteSpace=wrap;html=1;" vertex="1" parent="1">
          <mxGeometry x="360" y="160" width="40" height="29" as="geometry" />
        </mxCell>
        <mxCell id="BmM361tWgZ_u9sHNip33-35" value="" style="rounded=0;whiteSpace=wrap;html=1;" vertex="1" parent="1">
          <mxGeometry x="400" y="160" width="40" height="29" as="geometry" />
        </mxCell>
        <mxCell id="BmM361tWgZ_u9sHNip33-36" value="Iterazione 4" style="text;html=1;strokeColor=none;fillColor=none;align=center;verticalAlign=middle;whiteSpace=wrap;rounded=0;" vertex="1" parent="1">
          <mxGeometry x="140" y="170" width="80" height="9" as="geometry" />
        </mxCell>
        <mxCell id="BmM361tWgZ_u9sHNip33-37" value="0" style="rounded=0;whiteSpace=wrap;html=1;" vertex="1" parent="1">
          <mxGeometry x="240" y="200" width="40" height="29" as="geometry" />
        </mxCell>
        <mxCell id="BmM361tWgZ_u9sHNip33-38" value="1" style="rounded=0;whiteSpace=wrap;html=1;" vertex="1" parent="1">
          <mxGeometry x="280" y="200" width="40" height="29" as="geometry" />
        </mxCell>
        <mxCell id="BmM361tWgZ_u9sHNip33-39" value="2" style="rounded=0;whiteSpace=wrap;html=1;" vertex="1" parent="1">
          <mxGeometry x="320" y="200" width="40" height="29" as="geometry" />
        </mxCell>
        <mxCell id="BmM361tWgZ_u9sHNip33-40" value="3" style="rounded=0;whiteSpace=wrap;html=1;" vertex="1" parent="1">
          <mxGeometry x="360" y="200" width="40" height="29" as="geometry" />
        </mxCell>
        <mxCell id="BmM361tWgZ_u9sHNip33-41" value="4" style="rounded=0;whiteSpace=wrap;html=1;" vertex="1" parent="1">
          <mxGeometry x="400" y="200" width="40" height="29" as="geometry" />
        </mxCell>
        <mxCell id="BmM361tWgZ_u9sHNip33-42" value="Iterazione 5" style="text;html=1;strokeColor=none;fillColor=none;align=center;verticalAlign=middle;whiteSpace=wrap;rounded=0;" vertex="1" parent="1">
          <mxGeometry x="140" y="210" width="80" height="9" as="geometry" />
        </mxCell>
        <mxCell id="BmM361tWgZ_u9sHNip33-43" value="-- STAMPA --" style="text;html=1;strokeColor=none;fillColor=none;align=center;verticalAlign=middle;whiteSpace=wrap;rounded=0;" vertex="1" parent="1">
          <mxGeometry x="300" y="240" width="80" height="9" as="geometry" />
        </mxCell>
        <mxCell id="BmM361tWgZ_u9sHNip33-44" value="5" style="rounded=0;whiteSpace=wrap;html=1;" vertex="1" parent="1">
          <mxGeometry x="560" y="40" width="40" height="29" as="geometry" />
        </mxCell>
        <mxCell id="BmM361tWgZ_u9sHNip33-45" value="1" style="rounded=0;whiteSpace=wrap;html=1;" vertex="1" parent="1">
          <mxGeometry x="600" y="40" width="40" height="29" as="geometry" />
        </mxCell>
        <mxCell id="BmM361tWgZ_u9sHNip33-46" value="2" style="rounded=0;whiteSpace=wrap;html=1;" vertex="1" parent="1">
          <mxGeometry x="640" y="40" width="40" height="29" as="geometry" />
        </mxCell>
        <mxCell id="BmM361tWgZ_u9sHNip33-47" value="3" style="rounded=0;whiteSpace=wrap;html=1;" vertex="1" parent="1">
          <mxGeometry x="680" y="40" width="40" height="29" as="geometry" />
        </mxCell>
        <mxCell id="BmM361tWgZ_u9sHNip33-48" value="4" style="rounded=0;whiteSpace=wrap;html=1;" vertex="1" parent="1">
          <mxGeometry x="720" y="40" width="40" height="29" as="geometry" />
        </mxCell>
        <mxCell id="BmM361tWgZ_u9sHNip33-49" value="Iterazione 6" style="text;html=1;strokeColor=none;fillColor=none;align=center;verticalAlign=middle;whiteSpace=wrap;rounded=0;" vertex="1" parent="1">
          <mxGeometry x="460" y="50" width="80" height="9" as="geometry" />
        </mxCell>
        <mxCell id="BmM361tWgZ_u9sHNip33-50" value="5" style="rounded=0;whiteSpace=wrap;html=1;" vertex="1" parent="1">
          <mxGeometry x="560" y="200" width="40" height="29" as="geometry" />
        </mxCell>
        <mxCell id="BmM361tWgZ_u9sHNip33-51" value="6" style="rounded=0;whiteSpace=wrap;html=1;" vertex="1" parent="1">
          <mxGeometry x="600" y="200" width="40" height="29" as="geometry" />
        </mxCell>
        <mxCell id="BmM361tWgZ_u9sHNip33-52" value="7" style="rounded=0;whiteSpace=wrap;html=1;" vertex="1" parent="1">
          <mxGeometry x="640" y="200" width="40" height="29" as="geometry" />
        </mxCell>
        <mxCell id="BmM361tWgZ_u9sHNip33-53" value="8" style="rounded=0;whiteSpace=wrap;html=1;" vertex="1" parent="1">
          <mxGeometry x="680" y="200" width="40" height="29" as="geometry" />
        </mxCell>
        <mxCell id="BmM361tWgZ_u9sHNip33-54" value="9" style="rounded=0;whiteSpace=wrap;html=1;" vertex="1" parent="1">
          <mxGeometry x="720" y="200" width="40" height="29" as="geometry" />
        </mxCell>
        <mxCell id="BmM361tWgZ_u9sHNip33-55" value="Iterazione 10" style="text;html=1;strokeColor=none;fillColor=none;align=center;verticalAlign=middle;whiteSpace=wrap;rounded=0;" vertex="1" parent="1">
          <mxGeometry x="460" y="210" width="80" height="9" as="geometry" />
        </mxCell>
        <mxCell id="BmM361tWgZ_u9sHNip33-56" value="..." style="text;html=1;strokeColor=none;fillColor=none;align=center;verticalAlign=middle;whiteSpace=wrap;rounded=0;" vertex="1" parent="1">
          <mxGeometry x="620" y="70" width="80" height="9" as="geometry" />
        </mxCell>
        <mxCell id="BmM361tWgZ_u9sHNip33-57" value="-- STAMPA --" style="text;html=1;strokeColor=none;fillColor=none;align=center;verticalAlign=middle;whiteSpace=wrap;rounded=0;" vertex="1" parent="1">
          <mxGeometry x="620" y="240" width="80" height="9" as="geometry" />
        </mxCell>
        <mxCell id="BmM361tWgZ_u9sHNip33-60" value="5" style="rounded=0;whiteSpace=wrap;html=1;" vertex="1" parent="1">
          <mxGeometry x="560" y="160" width="40" height="29" as="geometry" />
        </mxCell>
        <mxCell id="BmM361tWgZ_u9sHNip33-61" value="6" style="rounded=0;whiteSpace=wrap;html=1;" vertex="1" parent="1">
          <mxGeometry x="600" y="160" width="40" height="29" as="geometry" />
        </mxCell>
        <mxCell id="BmM361tWgZ_u9sHNip33-62" value="7" style="rounded=0;whiteSpace=wrap;html=1;" vertex="1" parent="1">
          <mxGeometry x="640" y="160" width="40" height="29" as="geometry" />
        </mxCell>
        <mxCell id="BmM361tWgZ_u9sHNip33-63" value="8" style="rounded=0;whiteSpace=wrap;html=1;" vertex="1" parent="1">
          <mxGeometry x="680" y="160" width="40" height="29" as="geometry" />
        </mxCell>
        <mxCell id="BmM361tWgZ_u9sHNip33-64" value="4" style="rounded=0;whiteSpace=wrap;html=1;" vertex="1" parent="1">
          <mxGeometry x="720" y="160" width="40" height="29" as="geometry" />
        </mxCell>
        <mxCell id="BmM361tWgZ_u9sHNip33-66" value="Iterazione 9" style="text;html=1;strokeColor=none;fillColor=none;align=center;verticalAlign=middle;whiteSpace=wrap;rounded=0;" vertex="1" parent="1">
          <mxGeometry x="460" y="170" width="80" height="9" as="geometry" />
        </mxCell>
        <mxCell id="BmM361tWgZ_u9sHNip33-67" value="5" style="rounded=0;whiteSpace=wrap;html=1;" vertex="1" parent="1">
          <mxGeometry x="560" y="120" width="40" height="29" as="geometry" />
        </mxCell>
        <mxCell id="BmM361tWgZ_u9sHNip33-68" value="6" style="rounded=0;whiteSpace=wrap;html=1;" vertex="1" parent="1">
          <mxGeometry x="600" y="120" width="40" height="29" as="geometry" />
        </mxCell>
        <mxCell id="BmM361tWgZ_u9sHNip33-69" value="7" style="rounded=0;whiteSpace=wrap;html=1;" vertex="1" parent="1">
          <mxGeometry x="640" y="120" width="40" height="29" as="geometry" />
        </mxCell>
        <mxCell id="BmM361tWgZ_u9sHNip33-70" value="3" style="rounded=0;whiteSpace=wrap;html=1;" vertex="1" parent="1">
          <mxGeometry x="680" y="120" width="40" height="29" as="geometry" />
        </mxCell>
        <mxCell id="BmM361tWgZ_u9sHNip33-71" value="4" style="rounded=0;whiteSpace=wrap;html=1;" vertex="1" parent="1">
          <mxGeometry x="720" y="120" width="40" height="29" as="geometry" />
        </mxCell>
        <mxCell id="BmM361tWgZ_u9sHNip33-72" value="Iterazione 8" style="text;html=1;strokeColor=none;fillColor=none;align=center;verticalAlign=middle;whiteSpace=wrap;rounded=0;" vertex="1" parent="1">
          <mxGeometry x="460" y="130" width="80" height="9" as="geometry" />
        </mxCell>
        <mxCell id="BmM361tWgZ_u9sHNip33-73" value="5" style="rounded=0;whiteSpace=wrap;html=1;" vertex="1" parent="1">
          <mxGeometry x="560" y="80" width="40" height="29" as="geometry" />
        </mxCell>
        <mxCell id="BmM361tWgZ_u9sHNip33-74" value="6" style="rounded=0;whiteSpace=wrap;html=1;" vertex="1" parent="1">
          <mxGeometry x="600" y="80" width="40" height="29" as="geometry" />
        </mxCell>
        <mxCell id="BmM361tWgZ_u9sHNip33-75" value="2" style="rounded=0;whiteSpace=wrap;html=1;" vertex="1" parent="1">
          <mxGeometry x="640" y="80" width="40" height="29" as="geometry" />
        </mxCell>
        <mxCell id="BmM361tWgZ_u9sHNip33-76" value="3" style="rounded=0;whiteSpace=wrap;html=1;" vertex="1" parent="1">
          <mxGeometry x="680" y="80" width="40" height="29" as="geometry" />
        </mxCell>
        <mxCell id="BmM361tWgZ_u9sHNip33-77" value="4" style="rounded=0;whiteSpace=wrap;html=1;" vertex="1" parent="1">
          <mxGeometry x="720" y="80" width="40" height="29" as="geometry" />
        </mxCell>
        <mxCell id="BmM361tWgZ_u9sHNip33-78" value="Iterazione 7" style="text;html=1;strokeColor=none;fillColor=none;align=center;verticalAlign=middle;whiteSpace=wrap;rounded=0;" vertex="1" parent="1">
          <mxGeometry x="460" y="90" width="80" height="9" as="geometry" />
        </mxCell>
        <mxCell id="BmM361tWgZ_u9sHNip33-79" value="0" style="text;html=1;strokeColor=none;fillColor=none;align=center;verticalAlign=middle;whiteSpace=wrap;rounded=0;" vertex="1" parent="1">
          <mxGeometry x="560" y="20" width="40" height="9" as="geometry" />
        </mxCell>
        <mxCell id="BmM361tWgZ_u9sHNip33-80" value="1" style="text;html=1;strokeColor=none;fillColor=none;align=center;verticalAlign=middle;whiteSpace=wrap;rounded=0;" vertex="1" parent="1">
          <mxGeometry x="600" y="20" width="40" height="9" as="geometry" />
        </mxCell>
        <mxCell id="BmM361tWgZ_u9sHNip33-81" value="2" style="text;html=1;strokeColor=none;fillColor=none;align=center;verticalAlign=middle;whiteSpace=wrap;rounded=0;" vertex="1" parent="1">
          <mxGeometry x="640" y="20" width="40" height="9" as="geometry" />
        </mxCell>
        <mxCell id="BmM361tWgZ_u9sHNip33-82" value="3" style="text;html=1;strokeColor=none;fillColor=none;align=center;verticalAlign=middle;whiteSpace=wrap;rounded=0;" vertex="1" parent="1">
          <mxGeometry x="680" y="20" width="40" height="9" as="geometry" />
        </mxCell>
        <mxCell id="BmM361tWgZ_u9sHNip33-83" value="4" style="text;html=1;strokeColor=none;fillColor=none;align=center;verticalAlign=middle;whiteSpace=wrap;rounded=0;" vertex="1" parent="1">
          <mxGeometry x="720" y="20" width="40" height="9" as="geometry" />
        </mxCell>
      </root>
    </mxGraphModel>
  </diagram>
</mxfile>
